<?xml version="1.0" encoding="UTF-8" standalone="no"?>
<svg
   width="243.43201"
   height="96"
   fill="none"
   version="1.1"
   id="svg1"
   sodipodi:docname="dept.svg"
   xmlns:inkscape="http://www.inkscape.org/namespaces/inkscape"
   xmlns:sodipodi="http://sodipodi.sourceforge.net/DTD/sodipodi-0.dtd"
   xmlns="http://www.w3.org/2000/svg"
   xmlns:svg="http://www.w3.org/2000/svg">
  <defs
     id="defs1" />
  <sodipodi:namedview
     id="namedview1"
     pagecolor="#ffffff"
     bordercolor="#000000"
     borderopacity="0.25"
     inkscape:showpageshadow="2"
     inkscape:pageopacity="0.0"
     inkscape:pagecheckerboard="0"
     inkscape:deskcolor="#d1d1d1" />
  <path
     d="M 60.353599,47.257788 C 60.353599,29.60211 50.715152,16 26.213233,16 H -4.1582031e-5 V 78.515575 H 26.213233 c 24.501919,0 34.140366,-13.601993 34.140366,-31.257787 z m -17.835839,0 c 0,12.340981 -6.936146,16.93515 -16.574593,16.93515 h -8.91806 V 30.322755 h 8.91806 c 9.638447,0 16.574593,4.594074 16.574593,16.935033 z M 64.430844,78.515575 H 113.97482 V 64.28296 H 81.456017 V 53.563546 H 110.01127 V 40.051341 H 81.456017 V 30.232662 H 113.16415 V 16 H 64.430844 Z M 171.64843,37.709363 C 171.64843,21.945295 161.5594,16 145.8855,16 h -27.1142 v 62.515575 h 17.02517 v -19.09685 h 10.08903 c 15.6739,0 25.76293,-5.945436 25.76293,-21.709362 z m -17.65556,0 c 0,6.125479 -2.88258,8.647736 -9.81896,8.647736 h -8.37744 V 29.061626 h 8.37744 c 6.93638,0 9.81896,2.522233 9.81896,8.647737 z m 19.51343,-7.116378 h 19.72748 v 47.92259 h 17.02517 v -47.92259 h 19.72747 V 16 H 173.5063 Z m 49.40589,39.170063 c 0,5.657318 4.57964,10.236952 10.23766,10.236952 5.65685,0 10.2822,-4.579634 10.2822,-10.236952 0,-5.657319 -4.62535,-10.281964 -10.2822,-10.281964 -5.65802,0 -10.23766,4.624645 -10.23766,10.281964 z m 1.97556,0 c 0,-4.669422 3.68153,-8.485978 8.2621,-8.485978 4.57846,0 8.30593,3.816556 8.30593,8.485978 0,4.669421 -3.72747,8.440967 -8.30593,8.440967 -4.58057,0 -8.2621,-3.771546 -8.2621,-8.440967 z m 3.45718,5.073582 h 3.23188 v -3.502183 h 1.84264 l 1.92937,3.502183 h 3.50242 l -2.33494,-4.130696 c 1.07839,-0.448938 1.88483,-1.661187 1.88483,-3.008234 0,-2.379722 -1.52615,-3.502184 -4.13069,-3.502184 h -5.92551 z m 6.77884,-7.094154 c 0,0.853099 -0.53685,1.212484 -1.5707,1.212484 h -1.97626 v -2.245158 h 1.97626 c 1.03385,0 1.5707,0.269597 1.5707,1.032674 z"
     fill="currentColor"
     id="path1"
     style="stroke-width:0.0234432" />
</svg>
