<svg width="61" height="30" fill="none" xmlns="http://www.w3.org/2000/svg"><path d="M12.672.26A.887.887 0 0 1 13.3 0h3.426a.888.888 0 0 1 .628 1.518l-4.847 4.85L7.66 11.22a.889.889 0 0 0 0 1.257l9.716 9.725a.877.877 0 0 1-.62 1.494h-3.453a.894.894 0 0 1-.632-.262L5.732 16.49a.898.898 0 0 0-1.534.636v5.67a.897.897 0 0 1-.896.898H.89A.888.888 0 0 1 0 22.806V.896A.897.897 0 0 1 .896 0h2.428A.874.874 0 0 1 4.2.875v5.756a.875.875 0 0 0 1.494.617z" fill="currentColor"/><path fill-rule="evenodd" clip-rule="evenodd" d="M18.971 4.998a8.228 8.228 0 0 1 4.574-1.388 8.239 8.239 0 0 1 5.818 2.416 8.25 8.25 0 0 1 2.413 5.822 8.242 8.242 0 0 1-5.082 7.61 8.228 8.228 0 0 1-8.971-1.786A8.239 8.239 0 0 1 18.97 4.998zm2.332 10.206a4.032 4.032 0 0 0 6.275-3.356 4.038 4.038 0 0 0-2.49-3.73 4.032 4.032 0 0 0-5.5 2.941 4.039 4.039 0 0 0 1.716 4.145zM52.768 3.61a8.228 8.228 0 0 0-7.606 5.085 8.243 8.243 0 0 0 1.785 8.978A8.232 8.232 0 0 0 61 11.848a8.25 8.25 0 0 0-2.414-5.823 8.239 8.239 0 0 0-5.818-2.415Zm0 12.273a4.032 4.032 0 0 1-3.727-2.492 4.04 4.04 0 0 1 2.94-5.504 4.031 4.031 0 0 1 4.141 1.718 4.038 4.038 0 0 1-3.354 6.278z" fill="currentColor"/><path d="M43.796 16.497v2.423a.885.885 0 0 1-.883.883h-9.527a.869.869 0 0 1-.87-.87v-2.45a.881.881 0 0 1 .88-.88h1.766a.895.895 0 0 0 .895-.896V4.786a.895.895 0 0 1 .895-.895h2.399a.905.905 0 0 1 .905.906v9.909a.895.895 0 0 0 .895.896h1.751a.894.894 0 0 1 .894.895zM51.312 24.832l.704 2.938a.611.611 0 0 1-.487.72 59.928 59.928 0 0 1-26.732 0 .623.623 0 0 1-.498-.734l.704-2.933a.592.592 0 0 1 .711-.433 55.727 55.727 0 0 0 24.877 0 .601.601 0 0 1 .72.442z" fill="currentColor"/></svg>
