<svg width="179.268" height="36.306" fill="none" xmlns="http://www.w3.org/2000/svg"><g clip-path="url(#a)" transform="translate(-10.688 -7.07)" fill="currentColor"><path fill-rule="evenodd" clip-rule="evenodd" d="M127.943 21.101c0 4.529-3.751 8.213-8.363 8.213h-1.098l10.112 7.883h-2.312l-.014-.011-11.681-9.247h4.993c3.843 0 6.97-3.068 6.97-6.838s-3.127-6.837-6.97-6.837h-8.977v22.933h-1.392V12.889h10.369c4.612 0 8.363 3.684 8.363 8.212zm-73.484-6.758h18.944v-1.261H54.459Zm8.724 22.96h1.496V18.63h-1.496zm18.443.254H80.13V13.082h1.496zm17.053-24.475v11.184H85.868v1.385h12.811v11.906h1.397V13.082zm36.631 24.115h1.392V12.889h-1.392zm9.152-24.223 10.343 21.933 10.382-22.018h1.533l-.099.215-11.54 24.45h-.553l-.04-.085-11.6-24.58h1.535zm28.082-.085v24.308h17.088v-1.375h-15.696V14.264h15.696v-1.375zm17.085 12.484h-11.248v-1.375h11.248z"/><path d="M118.483 29.314v-.325h-.945l.746.581zm10.111 7.883v.325h.946l-.746-.582zm-2.311 0-.203.254.088.07h.115zm-.015-.012.203-.253-.001-.002zm-11.681-9.247v-.325h-.934l.733.58zm-3.984-13.674v-.325h-.324v.325zm0 22.933v.325h.325v-.325zm-1.392 0h-.325v.325h.325zm0-24.308v-.325h-.325v.325zm-35.808 1.454v.325h.325v-.325zm-18.944 0h-.324v.325h.324zm18.944-1.261h.325v-.325h-.325zm-18.944 0v-.325h-.324v.325zm10.22 24.22v.326h.325v-.325zm-1.495 0h-.325v.326h.325zm1.495-18.67h.325v-.326h-.325zm-1.495 0v-.326h-.325v.325zM80.13 37.556h-.325v.325h.325zm1.495 0v.325h.325v-.325zm-1.495-24.475v-.325h-.325v.325zm1.495 0h.325v-.325h-.325zM98.68 24.266v.325h.324v-.325zm0-11.184v-.325h-.325v.325zM85.868 24.266v-.325h-.325v.325zm0 1.385h-.325v.325h.325zm12.812 0h.324v-.325h-.324zm0 11.906h-.325v.325h.325zm1.396 0v.325h.324v-.325zm0-24.475h.324v-.325h-.324zm36.626 24.115v.325h.324v-.325zm-1.392 0h-.325v.325h.325zm1.392-24.308h.324v-.325h-.324zm-1.392 0v-.325h-.325v.325zm19.495 22.017-.293.14.293.622.293-.623zm-10.342-21.932.294-.138-.001-.001zm20.724-.085v-.325h-.205l-.088.186zm1.534 0 .294.138.216-.463h-.51zm-.1.214.293.14v-.002zm-11.54 24.452v.325h.207l.087-.186zm-.552 0-.294.14.089.185h.205zm-.041-.086-.293.14zm-11.6-24.58v-.325h-.512l.219.464zm1.535 0 .293-.14-.088-.185h-.205zm28.121 24.308h-.325v.325h.325zm0-24.308v-.325h-.325v.325zm17.088 24.308v.325h.325v-.325zm0-1.375h.325v-.325h-.325zm-15.696 0h-.325v.325h.325zm0-21.558v-.325h-.325v.325zm15.696 0v.325h.325v-.325zm0-1.375h.325v-.325h-.325zm-11.25 12.483h-.326v.326h.326zm11.247 0v.326h.325v-.326zm-11.247-1.374v-.325h-.326v.325zm11.247 0h.325v-.325h-.325zm-70.048 5.64c4.783 0 8.686-3.823 8.686-8.537h-.649c0 4.343-3.599 7.887-8.037 7.887zm-1.098 0h1.098v-.65h-1.098zm10.311 7.302-10.112-7.883-.398.513 10.111 7.883zm-2.511.582h2.311v-.65h-2.311zm-.218-.083.015.012.406-.508-.015-.011zm-11.679-9.246 11.682 9.247.402-.51-11.681-9.247zm5.195-.58h-4.994v.65h4.994zm6.645-6.512c0 3.584-2.975 6.512-6.645 6.512v.65c4.015 0 7.294-3.206 7.294-7.162zm-6.645-6.512c3.67 0 6.645 2.928 6.645 6.512h.649c0-3.956-3.279-7.162-7.294-7.162zm-8.978 0h8.978v-.65h-8.978zm.325 22.608V14.264h-.649v22.933zm-1.717.325h1.392v-.65h-1.392zm-.325-24.633v24.308h.649V12.889Zm10.695-.325h-10.37v.65h10.37zm8.686 8.537c0-4.714-3.903-8.537-8.686-8.537v.65c4.438 0 8.037 3.544 8.037 7.887zm-54.864-7.083H54.46v.65h18.944zm-.324-.936v1.261h.649v-1.261zm-18.62.325h18.944v-.65H54.46zm.325.936v-1.261h-.65v1.261zm9.895 22.635h-1.495v.65h1.495zm-.324-18.347v18.672h.649V18.63Zm-1.171.325h1.495v-.65h-1.495zm.324 18.347V18.63h-.649v18.672zm16.623.579h1.495v-.65h-1.495zm-.325-24.8v24.475h.65V13.082zm1.82-.325h-1.495v.65h1.495zm.325 24.8V13.082h-.65v24.475zm17.053-13.29V13.081h-.649v11.184zm-13.136.324H98.68v-.65H85.868Zm.324 1.06v-1.385h-.649v1.385zm12.488-.325H85.868v.65H98.68zm.324 12.23V25.652h-.649v11.906zm1.072-.324H98.68v.65h1.396zm-.325-24.15v24.475h.649V13.082zm-1.071.325h1.396v-.65H98.68zm38.022 23.465h-1.392v.65h1.392zm-.325-23.983v24.308h.649V12.889Zm-1.067.325h1.392v-.65h-1.392zm.324 23.983V12.889h-.649v24.308zm19.464-2.43-10.341-21.931-.588.277 10.343 21.932zm9.796-22.017-10.382 22.018.586.277 10.383-22.017zm1.827-.186h-1.534v.65h1.534zm.193.677.101-.214-.588-.276-.1.215zm-11.539 24.453 11.539-24.452-.586-.277-11.54 24.45zm-.846.186h.552v-.65h-.552zm-.334-.271.04.085.587-.279-.041-.085zm-11.6-24.581 11.6 24.58.586-.277-11.598-24.58zm1.828-.464h-1.535v.65h1.535zm.333.271-.04-.085-.586.279.04.085zm28.112 24.362V12.889h-.649v24.308zm16.764-.325h-17.088v.65h17.088zm-.325-1.05v1.375h.65v-1.375zm-15.371.325h15.696v-.65h-15.696zm-.325-21.883v21.558h.649V14.264Zm16.021-.325h-15.696v.65h15.696zm-.325-1.05v1.375h.65v-1.375zm-16.763.325h17.088v-.65h-17.088zm5.838 12.484h11.247v-.65h-11.247zm-.326-1.7v1.375h.649v-1.375zm11.573-.325h-11.247v.65h11.247zm.325 1.7v-1.375h-.649v1.375z"/><path fill-rule="evenodd" clip-rule="evenodd" d="M26.59 43.376c4.914-.57 15.414-11.782 15.414-20.362 0-1.543-.217-3.035-.622-4.446l-7.263 7.334a.942.942 0 0 1-.812 1.398.919.919 0 0 1-.455-.12l-5.737 5.793v.042a.94.94 0 0 1-.526.846zm-.798-.005c-5.03-.617-15.104-11.797-15.104-20.357 0-1.476.192-2.905.55-4.262L21.82 29.435a.944.944 0 0 0-.07.36c0 .519.415.94.93.94a.92.92 0 0 0 .356-.072l2.226 2.248a.94.94 0 0 0 .53.955zM11.446 18.037l10.814 10.92a.92.92 0 0 1 .418-.1c.514 0 .93.42.93.938a.942.942 0 0 1-.099.422l2.068 2.088a.933.933 0 0 1 .215-.141V21.256a.94.94 0 0 1-.535-.799l-3.748-3.785a.935.935 0 0 1-1.249-.883c0-.112.02-.22.056-.321l-4.399-4.441a15.876 15.876 0 0 0-4.471 7.01zm4.963-7.438 4.328 4.37a.919.919 0 0 1 .453-.118c.514 0 .93.42.93.939a.942.942 0 0 1-.117.457l3.493 3.527a.933.933 0 0 1 .296-.22V7.075a15.215 15.215 0 0 0-9.383 3.524zm9.767-3.53h.073a14.655 14.655 0 0 0-.073 0zm.413.005v12.484c.11.054.21.13.29.221l9.16-9.248a15.628 15.628 0 0 0-9.45-3.457Zm9.95 3.877-9.425 9.516a.94.94 0 0 1-.525.784v10.917c.09.044.17.101.24.17l5.603-5.658a.935.935 0 0 1 1.191-1.203l7.54-7.612a15.974 15.974 0 0 0-4.624-6.914z"/></g><defs><clipPath id="a"><path fill="currentColor" d="M0 0h200v50H0z"/></clipPath></defs></svg>
